{"title":"Minority.Report-Pilot.HDTV.480p.x264.AAC-VYTO [P2PDL]","uid":12215381,"size":163605176,"categoryP":"video","categoryS":"hd___tv_shows","magnet":"?xt=urn:btih:d7841d93fc4e49ceadae302e677310c934837d2e&amp;dn=Minority.Report-Pilot.HDTV.480p.x264.AAC-VYTO+%5BP2PDL%5D&amp;tr=udp%3A%2F%2Ftracker.openbittorrent.com%3A80&amp;tr=udp%3A%2F%2Fopen.demonii.com%3A1337&amp;tr=udp%3A%2F%2Ftracker.coppersurfer.tk%3A6969&amp;tr=udp%3A%2F%2Fexodus.desync.com%3A6969","seeders":7,"leechers":3,"uploader":"ValidusVyto","files":6,"time":1439218276,"description":"____    ____ ____    ____ .___________.  ______   \n     /   /      /   / |           | /  __    \n    /   /      /   /  `---|  |----`|  |  |  | \n        /     _    _/       |  |     |  |  |  | \n       /        |  |         |  |     |  `--'  | \n    __/         |__|         |__|      ______/  \n                                                  \nPresenting Small Encodes with quality for years!\n                                                                                                   \n                                                                                                   \n\nMinority.Report-Pilot.HDTV.480p.x264.AAC-VYTO\n\n\nGeneral\nFormat                         : MPEG-4\nFile size                      : 151 MiB\nDuration                       : 44mn 32s\nOverall bit rate               : 473 Kbps\n\nVideo\nFormat                         : AVC\nBit rate                       : 438 Kbps\nWidth                          : 720 pixels\nHeight                         : 400 pixels\nDisplay aspect ratio           : 16:9\nFrame rate mode                : Constant\nFrame rate                     : 23.976 fps\nBit depth                      : 8 bits\nStream size                    : 140 MiB (93%)\nWriting library                : x264 core 148 r2579\n\nAudio\nFormat                         : AAC\nBit rate mode                  : Variable\nBit rate                       : 32.0 Kbps\nChannel(s)                     : 2 channels\nChannel positions              : Front: L R \nSampling rate                  : 48.0 KHz \nStream size                    : 10.2 MiB (7%)\n\nScreenshots:\n &lt;a href=&quot;\nhttp://ititli.com/ol&quot; rel=&quot;nofollow&quot; target=&quot;_NEW&quot;&gt;\nhttp://ititli.com/ol&lt;/a&gt; &lt;a href=&quot;\nhttp://ititli.com/om&quot; rel=&quot;nofollow&quot; target=&quot;_NEW&quot;&gt;\nhttp://ititli.com/om&lt;/a&gt; &lt;a href=&quot;\nhttp://ititli.com/ox&quot; rel=&quot;nofollow&quot; target=&quot;_NEW&quot;&gt;\nhttp://ititli.com/ox&lt;/a&gt; &lt;a href=&quot;\nhttp://ititli.com/o7&quot; rel=&quot;nofollow&quot; target=&quot;_NEW&quot;&gt;\nhttp://ititli.com/o7&lt;/a&gt; &lt;a href=&quot;\nhttp://ititli.com/oC&quot; rel=&quot;nofollow&quot; target=&quot;_NEW&quot;&gt;\nhttp://ititli.com/oC&lt;/a&gt; &lt;a href=&quot;\nhttp://ititli.com/oF&quot; rel=&quot;nofollow&quot; target=&quot;_NEW&quot;&gt;\nhttp://ititli.com/oF&lt;/a&gt; &lt;a href=&quot;\nhttp://ititli.com/oJ&quot; rel=&quot;nofollow&quot; target=&quot;_NEW&quot;&gt;\nhttp://ititli.com/oJ&lt;/a&gt; &lt;a href=&quot;\nhttp://ititli.com/o5&quot; rel=&quot;nofollow&quot; target=&quot;_NEW&quot;&gt;\nhttp://ititli.com/o5&lt;/a&gt; &lt;a href=&quot;\nhttp://ititli.com/oB&quot; rel=&quot;nofollow&quot; target=&quot;_NEW&quot;&gt;\nhttp://ititli.com/oB&lt;/a&gt; &lt;a href=&quot;\nhttp://ititli.com/oN&quot; rel=&quot;nofollow&quot; target=&quot;_NEW&quot;&gt;\nhttp://ititli.com/oN&lt;/a&gt; &lt;a href=&quot;\nhttp://ititli.com/oP&quot; rel=&quot;nofollow&quot; target=&quot;_NEW&quot;&gt;\nhttp://ititli.com/oP&lt;/a&gt; &lt;a href=&quot;\nhttp://ititli.com/of&quot; rel=&quot;nofollow&quot; target=&quot;_NEW&quot;&gt;\nhttp://ititli.com/of&lt;/a&gt;\n\n----------------------------------------------------------------------------------------------------\n\n\nEncoder Notes: Looking For Early Access To Anything You Can Provide DVDScr, R5, DVDR, BluRay, Direct\nAudio, Music Releases and Seedboxes. If You Got anything to offer please contact us.\n\nSupport us by donating BC - 1FgwdzPsd1y25Gea8wP1qni35uGCtmkRCD","torrent":{"xt":"urn:btih:d7841d93fc4e49ceadae302e677310c934837d2e","amp;dn":"Minority.Report-Pilot.HDTV.480p.x264.AAC-VYTO+%5BP2PDL%5D","amp;tr":["udp%3A%2F%2Ftracker.openbittorrent.com%3A80","udp%3A%2F%2Fopen.demonii.com%3A1337","udp%3A%2F%2Ftracker.coppersurfer.tk%3A6969","udp%3A%2F%2Fexodus.desync.com%3A6969"],"infoHash":"d7841d93fc4e49ceadae302e677310c934837d2e","infoHashBuffer":{"type":"Buffer","data":[215,132,29,147,252,78,73,206,173,174,48,46,103,115,16,201,52,131,125,46]},"announce":[],"urlList":[]}}